<?xml version="1.0" standalone="no"?><!DOCTYPE svg PUBLIC "-//W3C//DTD SVG 1.1//EN" "http://www.w3.org/Graphics/SVG/1.1/DTD/svg11.dtd"><svg t="1659583938144" class="icon" viewBox="0 0 1024 1024" version="1.1" xmlns="http://www.w3.org/2000/svg" p-id="2281" width="48" height="48" xmlns:xlink="http://www.w3.org/1999/xlink"><defs><style type="text/css"></style></defs><path d="M512 508c89.328 0 162-72.672 162-162S601.328 184 512 184s-162 72.672-162 162S422.672 508 512 508zM512 264c45.208 0 82 36.792 82 82S557.208 428 512 428s-82-36.792-82-82S466.792 264 512 264z m-25.248 589.64l25.248 20.56 25.248-20.56c3.24-2.632 80.096-65.504 157.984-155.408 108-124.664 162.768-236.672 162.768-332.912v-19.296C858 155.224 702.792 0 512 0S166 155.224 166 346.024v19.296c0 96.24 54.768 208.248 162.768 332.912 77.88 89.904 154.744 152.776 157.984 155.408zM246 346.024C246 199.336 365.328 80 512 80s266 119.336 266 266.024v19.296c0 75.152-49.264 171.84-142.464 279.64C588.16 699.776 540.2 744.72 512 769.824c-28.008-24.92-75.496-69.416-122.76-123.976C295.528 537.688 246 440.688 246 365.32v-19.296zM1024 878c0 30.264-19.624 56.04-58.336 76.584-26.92 14.296-64.32 26.88-111.144 37.392C762.576 1012.624 640.936 1024 512 1024c-128.936 0-250.576-11.376-342.52-32.016-46.832-10.512-84.224-23.104-111.144-37.392C19.624 934.032 0 908.272 0 878c0-30.264 19.624-56.04 58.336-76.584 26.92-14.296 64.32-26.88 111.144-37.392 29.2-6.56 61.44-12.176 95.92-16.792 0.984 1.136 1.92 2.264 2.904 3.392a1455.952 1455.952 0 0 0 64.432 69.488c-44.304 4.184-85.68 9.92-122.416 17.08-74.16 14.464-110.24 31.024-124.568 40.808 14.32 9.784 50.4 26.344 124.568 40.8C293.632 935.064 400.776 944 512 944c111.224 0 218.368-8.944 301.68-25.2 74.16-14.456 110.24-31.016 124.568-40.8-14.32-9.784-50.4-26.344-124.568-40.8-36.736-7.168-78.104-12.912-122.4-17.088a1460.048 1460.048 0 0 0 64.416-69.488c0.984-1.128 1.928-2.264 2.896-3.4 34.48 4.624 66.72 10.24 95.928 16.792 46.832 10.512 84.224 23.104 111.144 37.392 38.712 20.56 58.336 46.32 58.336 76.592z" p-id="2282" fill="#0099cc"></path></svg>